<?xml version="1.0" encoding="UTF-8"?>
<!DOCTYPE svg PUBLIC "-//W3C//DTD SVG 1.1//EN" "http://www.w3.org/Graphics/SVG/1.1/DTD/svg11.dtd">
<svg xmlns="http://www.w3.org/2000/svg" version="1.1" width="500px" height="500px" style="shape-rendering:geometricPrecision; text-rendering:geometricPrecision; image-rendering:optimizeQuality; fill-rule:evenodd; clip-rule:evenodd" xmlns:xlink="http://www.w3.org/1999/xlink">
<g><path style="opacity:1" fill="#ccb36a" d="M 275.5,123.5 C 268.492,123.334 261.492,123.5 254.5,124C 246.496,125.333 238.496,126.5 230.5,127.5C 245.217,122.763 260.217,121.429 275.5,123.5 Z"/></g>
<g><path style="opacity:0.769" fill="#d3c281" d="M 280.5,123.5 C 288.55,124.503 296.217,126.503 303.5,129.5C 297.614,127.863 291.614,126.863 285.5,126.5C 283.469,126.028 281.802,125.028 280.5,123.5 Z"/></g>
<g><path style="opacity:1" fill="#d0a539" d="M 275.5,123.5 C 277.167,123.5 278.833,123.5 280.5,123.5C 281.802,125.028 283.469,126.028 285.5,126.5C 280.328,126.234 279.661,127.401 283.5,130C 282.584,130.374 281.75,130.874 281,131.5C 280.502,134.817 280.335,138.15 280.5,141.5C 282.675,141.318 284.675,140.651 286.5,139.5C 287.167,139.833 287.833,140.167 288.5,140.5C 283.386,141.973 283.386,143.64 288.5,145.5C 286.257,146.474 283.924,146.808 281.5,146.5C 269.158,145.282 256.825,145.282 244.5,146.5C 243.262,146.19 243.262,145.69 244.5,145C 247.833,144.667 251.167,144.333 254.5,144C 247.548,143.701 240.882,143.034 234.5,142C 234.167,141.667 233.833,141.333 233.5,141C 234.623,139.956 235.956,139.29 237.5,139C 233.886,138.055 230.219,137.388 226.5,137C 224.963,135.89 224.297,134.39 224.5,132.5C 222.127,133.294 219.794,134.294 217.5,135.5C 214.205,134.551 210.872,134.551 207.5,135.5C 214.67,131.664 222.337,128.998 230.5,127.5C 238.496,126.5 246.496,125.333 254.5,124C 261.492,123.5 268.492,123.334 275.5,123.5 Z"/></g>
<g><path style="opacity:1" fill="#d6b33f" d="M 285.5,126.5 C 291.614,126.863 297.614,127.863 303.5,129.5C 308.517,130.393 313.183,132.06 317.5,134.5C 319.824,137.159 322.824,138.492 326.5,138.5C 326.721,139.735 327.388,140.735 328.5,141.5C 332.019,142.68 335.019,144.68 337.5,147.5C 335.96,148.532 335.46,149.865 336,151.5C 337.154,149.043 338.488,149.043 340,151.5C 340.308,150.692 340.808,150.025 341.5,149.5C 343.571,152.326 346.071,154.659 349,156.5C 349.383,155.944 349.883,155.611 350.5,155.5C 352.749,156.08 354.415,157.413 355.5,159.5C 356.981,163.325 357.815,167.325 358,171.5C 359.667,171.5 361.333,171.5 363,171.5C 363.657,174.685 365.657,176.352 369,176.5C 367.956,179.649 367.123,182.983 366.5,186.5C 364.167,186.5 361.833,186.5 359.5,186.5C 359.709,184.286 358.876,182.619 357,181.5C 355.234,182.233 353.401,182.567 351.5,182.5C 351.44,181.957 351.107,181.624 350.5,181.5C 349.782,184.058 348.449,184.725 346.5,183.5C 344.177,180.874 341.843,178.207 339.5,175.5C 337.761,172.757 335.427,170.757 332.5,169.5C 330.562,167.198 328.895,164.698 327.5,162C 324.555,160.869 321.555,160.036 318.5,159.5C 306.542,154.004 294.209,150.004 281.5,147.5C 281.5,147.167 281.5,146.833 281.5,146.5C 283.924,146.808 286.257,146.474 288.5,145.5C 283.386,143.64 283.386,141.973 288.5,140.5C 287.833,140.167 287.167,139.833 286.5,139.5C 284.675,140.651 282.675,141.318 280.5,141.5C 280.335,138.15 280.502,134.817 281,131.5C 281.75,130.874 282.584,130.374 283.5,130C 279.661,127.401 280.328,126.234 285.5,126.5 Z"/></g>
<g><path style="opacity:1" fill="#dbc77d" d="M 317.5,134.5 C 320.912,135.042 323.912,136.375 326.5,138.5C 322.824,138.492 319.824,137.159 317.5,134.5 Z"/></g>
<g><path style="opacity:1" fill="#c99435" d="M 244.5,146.5 C 244.5,146.833 244.5,147.167 244.5,147.5C 238.418,147.314 232.751,148.648 227.5,151.5C 224.804,149.56 223.471,150.227 223.5,153.5C 220.675,153.838 218.508,152.838 217,150.5C 215.698,151.085 214.531,151.751 213.5,152.5C 209.624,151.941 205.791,151.275 202,150.5C 201.517,151.448 201.351,152.448 201.5,153.5C 199.8,153.374 198.3,152.707 197,151.5C 194.98,152.032 194.147,153.365 194.5,155.5C 187.665,157.374 180.665,159.207 173.5,161C 169.978,164.69 166.311,168.19 162.5,171.5C 163.96,174.951 163.627,175.617 161.5,173.5C 161.167,174.833 160.833,176.167 160.5,177.5C 159.583,176.873 158.583,176.539 157.5,176.5C 159.882,171.752 163.216,167.752 167.5,164.5C 170.5,162.167 173.167,159.5 175.5,156.5C 182.379,149.716 190.046,143.883 198.5,139C 201.521,137.82 204.521,136.654 207.5,135.5C 210.872,134.551 214.205,134.551 217.5,135.5C 219.794,134.294 222.127,133.294 224.5,132.5C 224.297,134.39 224.963,135.89 226.5,137C 230.219,137.388 233.886,138.055 237.5,139C 235.956,139.29 234.623,139.956 233.5,141C 233.833,141.333 234.167,141.667 234.5,142C 240.882,143.034 247.548,143.701 254.5,144C 251.167,144.333 247.833,144.667 244.5,145C 243.262,145.69 243.262,146.19 244.5,146.5 Z"/></g>
<g><path style="opacity:0.902" fill="#dcc882" d="M 281.5,146.5 C 281.5,146.833 281.5,147.167 281.5,147.5C 269.151,146.649 256.818,146.649 244.5,147.5C 244.5,147.167 244.5,146.833 244.5,146.5C 256.825,145.282 269.158,145.282 281.5,146.5 Z"/></g>
<g><path style="opacity:1" fill="#d7c46c" d="M 326.5,138.5 C 335.908,142.202 343.908,147.869 350.5,155.5C 349.883,155.611 349.383,155.944 349,156.5C 346.071,154.659 343.571,152.326 341.5,149.5C 340.808,150.025 340.308,150.692 340,151.5C 338.488,149.043 337.154,149.043 336,151.5C 335.46,149.865 335.96,148.532 337.5,147.5C 335.019,144.68 332.019,142.68 328.5,141.5C 327.388,140.735 326.721,139.735 326.5,138.5 Z"/></g>
<g><path style="opacity:1" fill="#d4a555" d="M 244.5,147.5 C 231.764,150.97 219.43,155.636 207.5,161.5C 207.343,160.127 207.51,158.793 208,157.5C 208.414,157.957 208.914,158.291 209.5,158.5C 210.333,157.5 211.167,156.5 212,155.5C 213.049,156.517 214.216,156.684 215.5,156C 214.027,155.29 213.36,154.124 213.5,152.5C 214.531,151.751 215.698,151.085 217,150.5C 218.508,152.838 220.675,153.838 223.5,153.5C 223.471,150.227 224.804,149.56 227.5,151.5C 232.751,148.648 238.418,147.314 244.5,147.5 Z"/></g>
<g><path style="opacity:1" fill="#0f3749" d="M 278.5,182.5 C 278.5,183.833 278.5,185.167 278.5,186.5C 280.167,186.5 281.833,186.5 283.5,186.5C 287.138,186.738 289.971,188.404 292,191.5C 293.3,194.295 294.8,196.961 296.5,199.5C 302.676,203.686 307.009,209.353 309.5,216.5C 310.901,217.521 312.235,218.521 313.5,219.5C 311.738,219.643 310.071,219.309 308.5,218.5C 307.374,216.207 306.041,214.04 304.5,212C 301.833,211.667 299.167,211.333 296.5,211C 296.957,210.586 297.291,210.086 297.5,209.5C 295.419,206.062 294.085,202.395 293.5,198.5C 291.856,198.286 290.356,198.62 289,199.5C 288.51,198.207 288.343,196.873 288.5,195.5C 285.833,195.167 283.167,194.833 280.5,194.5C 280.5,193.167 280.5,191.833 280.5,190.5C 279.5,190.5 278.5,190.5 277.5,190.5C 277.664,187.813 277.497,185.146 277,182.5C 275.294,181.692 274.461,180.359 274.5,178.5C 272.167,177.833 269.833,177.167 267.5,176.5C 267.719,175.325 267.386,174.325 266.5,173.5C 263.602,172.009 260.769,171.343 258,171.5C 257.178,168.883 256.678,166.216 256.5,163.5C 254.263,162.551 251.929,161.884 249.5,161.5C 249.666,165.514 249.499,169.514 249,173.5C 248.626,174.416 248.126,175.25 247.5,176C 249.037,177.11 249.703,178.61 249.5,180.5C 248.883,180.389 248.383,180.056 248,179.5C 246.961,180.71 245.794,181.71 244.5,182.5C 243.791,181.596 242.791,181.263 241.5,181.5C 239.856,181.286 238.356,181.62 237,182.5C 235.974,177.397 233.474,176.397 229.5,179.5C 228.833,179.167 228.167,178.833 227.5,178.5C 229.344,176.157 231.344,173.99 233.5,172C 232.5,171.5 231.5,171 230.5,170.5C 229.813,172.274 228.98,173.941 228,175.5C 227.439,174.978 226.772,174.645 226,174.5C 224.923,175.429 223.756,176.096 222.5,176.5C 229.602,167.895 237.268,159.729 245.5,152C 254.915,150.123 260.082,153.956 261,163.5C 265.145,167.315 268.978,171.481 272.5,176C 276.089,176.754 278.089,178.921 278.5,182.5 Z"/></g>
<g><path style="opacity:0.659" fill="#dec897" d="M 175.5,156.5 C 173.167,159.5 170.5,162.167 167.5,164.5C 169.167,160.833 171.833,158.167 175.5,156.5 Z"/></g>
<g><path style="opacity:1" fill="#07354d" d="M 313.5,219.5 C 317.26,220.926 319.593,223.593 320.5,227.5C 318.864,229.383 318.531,231.383 319.5,233.5C 320.086,233.291 320.586,232.957 321,232.5C 321.333,233.833 321.667,235.167 322,236.5C 323,236.167 324,235.833 325,235.5C 325.971,240.595 327.305,245.595 329,250.5C 329.342,248.381 330.175,248.047 331.5,249.5C 338.16,255.994 344.66,262.66 351,269.5C 351.333,269.167 351.667,268.833 352,268.5C 356.537,270.675 360.371,273.675 363.5,277.5C 363.837,279.672 364.837,281.505 366.5,283C 366.101,285.337 366.101,287.837 366.5,290.5C 359.833,290.5 353.167,290.5 346.5,290.5C 343.779,290.037 341.112,289.371 338.5,288.5C 327.129,276.464 316.129,264.131 305.5,251.5C 305.953,250.542 306.619,249.708 307.5,249C 305.117,248.935 304.45,248.102 305.5,246.5C 303.995,245.158 303.328,243.492 303.5,241.5C 301.8,241.374 300.3,240.707 299,239.5C 298.228,239.645 297.561,239.978 297,240.5C 295.933,239.057 294.766,237.724 293.5,236.5C 294.5,235.667 295.5,234.833 296.5,234C 294.559,233.257 292.726,233.424 291,234.5C 290.338,236.813 289.838,239.146 289.5,241.5C 288.5,241.5 287.5,241.5 286.5,241.5C 286.762,242.978 286.429,244.311 285.5,245.5C 281.261,248.118 276.927,250.451 272.5,252.5C 272.141,254.766 272.808,256.599 274.5,258C 273.027,258.71 272.36,259.876 272.5,261.5C 269.564,260.594 266.564,259.928 263.5,259.5C 261.5,258.167 259.833,256.5 258.5,254.5C 256.583,252.354 256.25,250.021 257.5,247.5C 257.167,245.167 256.167,244.833 254.5,246.5C 253.548,244.955 253.215,243.288 253.5,241.5C 254.833,241.5 256.167,241.5 257.5,241.5C 257.5,239.167 257.5,236.833 257.5,234.5C 258.675,234.719 259.675,234.386 260.5,233.5C 259.271,232.719 257.938,232.219 256.5,232C 258.321,229.863 260.654,229.03 263.5,229.5C 264.377,226.292 265.711,223.292 267.5,220.5C 270.266,217.836 272.933,215.003 275.5,212C 266.304,201.967 257.637,191.467 249.5,180.5C 249.703,178.61 249.037,177.11 247.5,176C 248.126,175.25 248.626,174.416 249,173.5C 249.499,169.514 249.666,165.514 249.5,161.5C 251.929,161.884 254.263,162.551 256.5,163.5C 256.678,166.216 257.178,168.883 258,171.5C 260.769,171.343 263.602,172.009 266.5,173.5C 267.386,174.325 267.719,175.325 267.5,176.5C 269.833,177.167 272.167,177.833 274.5,178.5C 274.461,180.359 275.294,181.692 277,182.5C 277.497,185.146 277.664,187.813 277.5,190.5C 278.5,190.5 279.5,190.5 280.5,190.5C 280.5,191.833 280.5,193.167 280.5,194.5C 283.167,194.833 285.833,195.167 288.5,195.5C 288.343,196.873 288.51,198.207 289,199.5C 290.356,198.62 291.856,198.286 293.5,198.5C 294.085,202.395 295.419,206.062 297.5,209.5C 297.291,210.086 296.957,210.586 296.5,211C 299.167,211.333 301.833,211.667 304.5,212C 306.041,214.04 307.374,216.207 308.5,218.5C 310.071,219.309 311.738,219.643 313.5,219.5 Z"/></g>
<g><path style="opacity:0.451" fill="#f0e9b3" d="M 284.5,171.5 C 285.244,167.881 285.577,164.215 285.5,160.5C 284.167,160.5 282.833,160.5 281.5,160.5C 281.5,163.5 281.5,166.5 281.5,169.5C 280.521,166.375 280.187,163.042 280.5,159.5C 283.073,159.148 285.406,159.648 287.5,161C 287.025,164.75 286.025,168.25 284.5,171.5 Z"/></g>
<g><path style="opacity:1" fill="#ddc16b" d="M 318.5,159.5 C 321.555,160.036 324.555,160.869 327.5,162C 328.895,164.698 330.562,167.198 332.5,169.5C 327.55,166.547 322.883,163.214 318.5,159.5 Z"/></g>
<g><path style="opacity:1" fill="#c4812f" d="M 188.5,176.5 C 182.176,183.163 176.843,190.496 172.5,198.5C 172.714,196.856 172.38,195.356 171.5,194C 173.32,191.36 174.654,188.527 175.5,185.5C 173.508,185.672 171.842,185.005 170.5,183.5C 167.906,185.698 164.906,186.698 161.5,186.5C 162.464,190.811 160.964,193.811 157,195.5C 156.051,191.622 154.885,191.622 153.5,195.5C 151.929,196.309 150.262,196.643 148.5,196.5C 146.281,200.466 145.114,204.8 145,209.5C 144.07,207.034 143.237,207.201 142.5,210C 142.905,210.945 143.572,211.612 144.5,212C 142.469,212.632 140.802,213.799 139.5,215.5C 140.825,218.531 140.825,221.531 139.5,224.5C 138.85,224.196 138.183,223.863 137.5,223.5C 136.598,227.319 135.598,230.986 134.5,234.5C 134.28,229.9 134.946,225.567 136.5,221.5C 137.924,219.485 138.59,217.152 138.5,214.5C 139.536,208.715 141.536,203.382 144.5,198.5C 147.989,197.119 149.822,194.452 150,190.5C 150.903,189.299 152.069,188.465 153.5,188C 152.289,187.107 152.289,186.274 153.5,185.5C 154.167,186.167 154.833,186.833 155.5,187.5C 156.622,185.956 156.289,184.623 154.5,183.5C 154.957,181.402 155.957,179.736 157.5,178.5C 160.374,180.258 162.541,179.592 164,176.5C 164.561,177.022 165.228,177.355 166,177.5C 166.777,174.983 168.277,172.483 170.5,170C 173.882,169.824 177.215,169.324 180.5,168.5C 183.453,165.784 186.62,163.451 190,161.5C 190.833,161.833 191.667,162.167 192.5,162.5C 191.167,163.167 189.833,163.833 188.5,164.5C 189.376,165.251 190.376,165.751 191.5,166C 190.128,166.631 188.795,167.298 187.5,168C 187.988,169.584 188.988,170.751 190.5,171.5C 189.624,172.251 188.624,172.751 187.5,173C 188.337,174.011 188.67,175.178 188.5,176.5 Z"/></g>
<g><path style="opacity:1" fill="#dfad31" d="M 284.5,171.5 C 284.5,172.167 284.5,172.833 284.5,173.5C 283.883,173.611 283.383,173.944 283,174.5C 282.768,173.263 282.268,172.263 281.5,171.5C 281.5,170.833 281.5,170.167 281.5,169.5C 281.5,166.5 281.5,163.5 281.5,160.5C 282.833,160.5 284.167,160.5 285.5,160.5C 285.577,164.215 285.244,167.881 284.5,171.5 Z"/></g>
<g><path style="opacity:0.663" fill="#f1db92" d="M 311.5,175.5 C 312.059,173.321 312.726,171.154 313.5,169C 313.167,168.5 312.833,168 312.5,167.5C 311.943,169.332 310.943,170.665 309.5,171.5C 309.833,169.5 310.167,167.5 310.5,165.5C 312.912,165.244 314.579,166.244 315.5,168.5C 314.524,171.163 313.19,173.496 311.5,175.5 Z"/></g>
<g><path style="opacity:0.824" fill="#e2d59e" d="M 332.5,169.5 C 335.427,170.757 337.761,172.757 339.5,175.5C 336.573,174.243 334.239,172.243 332.5,169.5 Z"/></g>
<g><path style="opacity:1" fill="#eeb42c" d="M 311.5,175.5 C 310.883,175.611 310.383,175.944 310,176.5C 309.506,174.866 309.34,173.199 309.5,171.5C 310.943,170.665 311.943,169.332 312.5,167.5C 312.833,168 313.167,168.5 313.5,169C 312.726,171.154 312.059,173.321 311.5,175.5 Z"/></g>
<g><path style="opacity:1" fill="#c78830" d="M 213.5,152.5 C 213.36,154.124 214.027,155.29 215.5,156C 214.216,156.684 213.049,156.517 212,155.5C 211.167,156.5 210.333,157.5 209.5,158.5C 208.914,158.291 208.414,157.957 208,157.5C 207.51,158.793 207.343,160.127 207.5,161.5C 200.904,166.088 194.57,171.088 188.5,176.5C 188.67,175.178 188.337,174.011 187.5,173C 188.624,172.751 189.624,172.251 190.5,171.5C 188.988,170.751 187.988,169.584 187.5,168C 188.795,167.298 190.128,166.631 191.5,166C 190.376,165.751 189.376,165.251 188.5,164.5C 189.833,163.833 191.167,163.167 192.5,162.5C 191.667,162.167 190.833,161.833 190,161.5C 186.62,163.451 183.453,165.784 180.5,168.5C 177.215,169.324 173.882,169.824 170.5,170C 168.277,172.483 166.777,174.983 166,177.5C 165.228,177.355 164.561,177.022 164,176.5C 162.541,179.592 160.374,180.258 157.5,178.5C 157.5,177.833 157.5,177.167 157.5,176.5C 158.583,176.539 159.583,176.873 160.5,177.5C 160.833,176.167 161.167,174.833 161.5,173.5C 163.627,175.617 163.96,174.951 162.5,171.5C 166.311,168.19 169.978,164.69 173.5,161C 180.665,159.207 187.665,157.374 194.5,155.5C 194.147,153.365 194.98,152.032 197,151.5C 198.3,152.707 199.8,153.374 201.5,153.5C 201.351,152.448 201.517,151.448 202,150.5C 205.791,151.275 209.624,151.941 213.5,152.5 Z"/></g>
<g><path style="opacity:0.733" fill="#d6c48e" d="M 281.5,171.5 C 282.268,172.263 282.768,173.263 283,174.5C 283.383,173.944 283.883,173.611 284.5,173.5C 284.313,175.564 283.813,177.564 283,179.5C 281.921,176.937 281.421,174.271 281.5,171.5 Z"/></g>
<g><path style="opacity:0.867" fill="#e2c478" d="M 309.5,171.5 C 309.34,173.199 309.506,174.866 310,176.5C 310.383,175.944 310.883,175.611 311.5,175.5C 311.34,177.153 310.674,178.486 309.5,179.5C 307.797,180.66 307.131,179.993 307.5,177.5C 307.595,175.214 308.262,173.214 309.5,171.5 Z"/></g>
<g><path style="opacity:0.624" fill="#e8e4b7" d="M 307.5,177.5 C 307.131,179.993 307.797,180.66 309.5,179.5C 309.038,181.757 308.038,183.757 306.5,185.5C 305.55,182.646 305.883,179.98 307.5,177.5 Z"/></g>
<g><path style="opacity:1" fill="#eec23d" d="M 328.5,184.5 C 326.077,184.424 324.244,185.424 323,187.5C 322.5,187.167 322,186.833 321.5,186.5C 322.309,184.929 322.643,183.262 322.5,181.5C 324.935,175.005 327.935,174.838 331.5,181C 331.022,182.642 330.022,183.809 328.5,184.5 Z"/></g>
<g><path style="opacity:1" fill="#033348" d="M 241.5,181.5 C 241.214,184.93 239.38,187.264 236,188.5C 235.517,189.448 235.351,190.448 235.5,191.5C 234.127,191.343 232.793,191.51 231.5,192C 231.833,192.333 232.167,192.667 232.5,193C 230.162,194.162 228.828,195.996 228.5,198.5C 227.5,198.5 226.5,198.5 225.5,198.5C 225.5,200.167 225.5,201.833 225.5,203.5C 224.213,204.768 223.213,204.435 222.5,202.5C 221.571,203.689 221.238,205.022 221.5,206.5C 220.5,206.5 219.5,206.5 218.5,206.5C 218.116,208.929 217.449,211.263 216.5,213.5C 212.427,213.946 210.427,216.28 210.5,220.5C 209.609,219.89 208.609,219.557 207.5,219.5C 204.216,217.883 201.549,215.55 199.5,212.5C 199.611,211.883 199.944,211.383 200.5,211C 198.717,209.261 197.05,207.428 195.5,205.5C 199.689,201.986 204.356,200.986 209.5,202.5C 209.681,199.603 209.348,196.77 208.5,194C 211.667,190.5 214.833,187 218,183.5C 218.567,186.8 220.067,186.966 222.5,184C 219.914,181.506 219.914,179.006 222.5,176.5C 223.756,176.096 224.923,175.429 226,174.5C 226.772,174.645 227.439,174.978 228,175.5C 228.98,173.941 229.813,172.274 230.5,170.5C 231.5,171 232.5,171.5 233.5,172C 231.344,173.99 229.344,176.157 227.5,178.5C 228.167,178.833 228.833,179.167 229.5,179.5C 233.474,176.397 235.974,177.397 237,182.5C 238.356,181.62 239.856,181.286 241.5,181.5 Z"/></g>
<g><path style="opacity:0.431" fill="#788e90" d="M 278.5,182.5 C 279.404,183.209 279.737,184.209 279.5,185.5C 281.099,185.232 282.432,185.566 283.5,186.5C 281.833,186.5 280.167,186.5 278.5,186.5C 278.5,185.167 278.5,183.833 278.5,182.5 Z"/></g>
<g><path style="opacity:1" fill="#eac35b" d="M 322.5,181.5 C 322.643,183.262 322.309,184.929 321.5,186.5C 322,186.833 322.5,187.167 323,187.5C 324.244,185.424 326.077,184.424 328.5,184.5C 325.514,188.817 322.18,192.817 318.5,196.5C 316.821,196.715 315.821,196.048 315.5,194.5C 317.583,190 319.916,185.666 322.5,181.5 Z"/></g>
<g><path style="opacity:1" fill="#c29654" d="M 157.5,176.5 C 157.5,177.167 157.5,177.833 157.5,178.5C 155.957,179.736 154.957,181.402 154.5,183.5C 156.289,184.623 156.622,185.956 155.5,187.5C 154.833,186.833 154.167,186.167 153.5,185.5C 152.289,186.274 152.289,187.107 153.5,188C 152.069,188.465 150.903,189.299 150,190.5C 149.822,194.452 147.989,197.119 144.5,198.5C 147.325,190.169 151.658,182.836 157.5,176.5 Z"/></g>
<g><path style="opacity:1" fill="#38525b" d="M 241.5,181.5 C 242.791,181.263 243.791,181.596 244.5,182.5C 239.27,190.402 232.936,197.402 225.5,203.5C 225.5,201.833 225.5,200.167 225.5,198.5C 226.5,198.5 227.5,198.5 228.5,198.5C 228.828,195.996 230.162,194.162 232.5,193C 232.167,192.667 231.833,192.333 231.5,192C 232.793,191.51 234.127,191.343 235.5,191.5C 235.351,190.448 235.517,189.448 236,188.5C 239.38,187.264 241.214,184.93 241.5,181.5 Z"/></g>
<g><path style="opacity:1" fill="#153a4a" d="M 222.5,176.5 C 219.914,179.006 219.914,181.506 222.5,184C 220.067,186.966 218.567,186.8 218,183.5C 214.833,187 211.667,190.5 208.5,194C 209.348,196.77 209.681,199.603 209.5,202.5C 204.356,200.986 199.689,201.986 195.5,205.5C 197.05,207.428 198.717,209.261 200.5,211C 199.944,211.383 199.611,211.883 199.5,212.5C 197.851,211.351 196.351,210.018 195,208.5C 194.5,208.667 194,208.833 193.5,209C 183.163,220.529 172.497,231.695 161.5,242.5C 161.461,241.417 161.127,240.417 160.5,239.5C 161.325,238.614 162.325,238.281 163.5,238.5C 163.498,236.169 164.331,234.169 166,232.5C 166.333,233.167 166.667,233.833 167,234.5C 169.538,231.303 172.038,228.136 174.5,225C 175.448,224.517 176.448,224.351 177.5,224.5C 176.907,218.528 178.907,213.694 183.5,210C 184.448,209.517 185.448,209.351 186.5,209.5C 187.312,207.257 187.979,204.924 188.5,202.5C 188.333,201.167 188.167,199.833 188,198.5C 186.324,197.939 184.991,196.939 184,195.5C 182.731,196.905 182.231,198.571 182.5,200.5C 181.5,200.5 180.5,200.5 179.5,200.5C 180.5,205.5 178.5,207.5 173.5,206.5C 173.411,210.285 171.744,211.619 168.5,210.5C 168.5,210.167 168.5,209.833 168.5,209.5C 175.608,200.916 183.275,192.749 191.5,185C 192.167,184.333 192.833,184.333 193.5,185C 196.682,188.349 200.015,191.516 203.5,194.5C 209.684,189.15 215.351,183.316 220.5,177C 221.094,176.536 221.761,176.369 222.5,176.5 Z"/></g>
<g><path style="opacity:0.533" fill="#eadea7" d="M 345.5,198.5 C 344.778,197.449 343.778,196.782 342.5,196.5C 344.54,194.133 345.54,194.8 345.5,198.5 Z"/></g>
<g><path style="opacity:1" fill="#dbbb66" d="M 351.5,182.5 C 350.85,184.435 350.517,186.435 350.5,188.5C 351.5,188.5 352.5,188.5 353.5,188.5C 353.061,193.767 355.228,196.101 360,195.5C 361.385,196.551 362.385,197.884 363,199.5C 363.036,204.398 363.203,209.398 363.5,214.5C 359.155,203.479 353.488,193.145 346.5,183.5C 348.449,184.725 349.782,184.058 350.5,181.5C 351.107,181.624 351.44,181.957 351.5,182.5 Z"/></g>
<g><path style="opacity:0.086" fill="#f5f1d3" d="M 315.5,194.5 C 315.821,196.048 316.821,196.715 318.5,196.5C 317.201,198.099 315.535,198.599 313.5,198C 314.085,196.698 314.751,195.531 315.5,194.5 Z"/></g>
<g><path style="opacity:0.325" fill="#f4e6ad" d="M 342.5,196.5 C 340.2,198.984 337.533,200.984 334.5,202.5C 336.443,199.529 339.109,197.529 342.5,196.5 Z"/></g>
<g><path style="opacity:1" fill="#e3aa29" d="M 342.5,196.5 C 343.778,196.782 344.778,197.449 345.5,198.5C 345.443,199.609 345.11,200.609 344.5,201.5C 343.609,202.11 342.609,202.443 341.5,202.5C 339.181,202.992 337.181,203.992 335.5,205.5C 334.448,205.649 333.448,205.483 332.5,205C 333.381,204.292 334.047,203.458 334.5,202.5C 337.533,200.984 340.2,198.984 342.5,196.5 Z"/></g>
<g><path style="opacity:0.125" fill="#f5eba6" d="M 345.5,198.5 C 346.885,199.947 346.552,200.947 344.5,201.5C 345.11,200.609 345.443,199.609 345.5,198.5 Z"/></g>
<g><path style="opacity:1" fill="#be7627" d="M 172.5,198.5 C 172.167,199.167 171.833,199.833 171.5,200.5C 170.5,200.5 169.5,200.5 168.5,200.5C 167.424,203.734 166.757,207.068 166.5,210.5C 164.694,207.662 163.694,207.995 163.5,211.5C 158.938,211.956 154.605,211.956 150.5,211.5C 149.994,214.391 148.994,217.058 147.5,219.5C 144.813,221.689 142.313,224.022 140,226.5C 139.536,225.906 139.369,225.239 139.5,224.5C 140.825,221.531 140.825,218.531 139.5,215.5C 140.802,213.799 142.469,212.632 144.5,212C 143.572,211.612 142.905,210.945 142.5,210C 143.237,207.201 144.07,207.034 145,209.5C 145.114,204.8 146.281,200.466 148.5,196.5C 150.262,196.643 151.929,196.309 153.5,195.5C 154.885,191.622 156.051,191.622 157,195.5C 160.964,193.811 162.464,190.811 161.5,186.5C 164.906,186.698 167.906,185.698 170.5,183.5C 171.842,185.005 173.508,185.672 175.5,185.5C 174.654,188.527 173.32,191.36 171.5,194C 172.38,195.356 172.714,196.856 172.5,198.5 Z"/></g>
<g><path style="opacity:1" fill="#d3b044" d="M 355.5,159.5 C 371.532,173.891 382.198,191.558 387.5,212.5C 388.376,216.462 389.042,220.462 389.5,224.5C 387.856,224.714 386.356,224.38 385,223.5C 383.839,218.584 383.173,213.584 383,208.5C 382.506,210.134 382.34,211.801 382.5,213.5C 381.167,213.5 379.833,213.5 378.5,213.5C 378.5,214.833 378.5,216.167 378.5,217.5C 375.545,218.159 372.545,218.492 369.5,218.5C 369.649,219.552 369.483,220.552 369,221.5C 368.78,219.027 367.614,217.36 365.5,216.5C 364.833,215.833 364.167,215.167 363.5,214.5C 363.203,209.398 363.036,204.398 363,199.5C 362.385,197.884 361.385,196.551 360,195.5C 355.228,196.101 353.061,193.767 353.5,188.5C 352.5,188.5 351.5,188.5 350.5,188.5C 350.517,186.435 350.85,184.435 351.5,182.5C 353.401,182.567 355.234,182.233 357,181.5C 358.876,182.619 359.709,184.286 359.5,186.5C 361.833,186.5 364.167,186.5 366.5,186.5C 367.123,182.983 367.956,179.649 369,176.5C 365.657,176.352 363.657,174.685 363,171.5C 361.333,171.5 359.667,171.5 358,171.5C 357.815,167.325 356.981,163.325 355.5,159.5 Z"/></g>
<g><path style="opacity:0.216" fill="#f8ecad" d="M 341.5,202.5 C 340.089,204.539 338.089,205.539 335.5,205.5C 337.181,203.992 339.181,202.992 341.5,202.5 Z"/></g>
<g><path style="opacity:1" fill="#c89357" d="M 171.5,200.5 C 170.302,203.426 169.302,206.426 168.5,209.5C 167.167,209.833 167.167,210.167 168.5,210.5C 168.167,211.5 167.5,212.167 166.5,212.5C 166.5,211.833 166.5,211.167 166.5,210.5C 166.757,207.068 167.424,203.734 168.5,200.5C 169.5,200.5 170.5,200.5 171.5,200.5 Z"/></g>
<g><path style="opacity:0.604" fill="#e8e0b0" d="M 334.5,202.5 C 334.047,203.458 333.381,204.292 332.5,205C 333.448,205.483 334.448,205.649 335.5,205.5C 333.552,206.131 331.719,207.131 330,208.5C 329.5,208 329,207.5 328.5,207C 330.114,204.873 332.114,203.373 334.5,202.5 Z"/></g>
<g><path style="opacity:1" fill="#455f66" d="M 225.5,203.5 C 220.865,209.469 215.865,215.136 210.5,220.5C 210.427,216.28 212.427,213.946 216.5,213.5C 217.449,211.263 218.116,208.929 218.5,206.5C 219.5,206.5 220.5,206.5 221.5,206.5C 221.238,205.022 221.571,203.689 222.5,202.5C 223.213,204.435 224.213,204.768 225.5,203.5 Z"/></g>
<g><path style="opacity:1" fill="#bb7029" d="M 166.5,210.5 C 166.5,211.167 166.5,211.833 166.5,212.5C 156.911,224.261 146.745,235.594 136,246.5C 134.748,249.014 134.248,251.68 134.5,254.5C 133.167,247.833 133.167,241.167 134.5,234.5C 135.598,230.986 136.598,227.319 137.5,223.5C 138.183,223.863 138.85,224.196 139.5,224.5C 139.369,225.239 139.536,225.906 140,226.5C 142.313,224.022 144.813,221.689 147.5,219.5C 148.994,217.058 149.994,214.391 150.5,211.5C 154.605,211.956 158.938,211.956 163.5,211.5C 163.694,207.995 164.694,207.662 166.5,210.5 Z"/></g>
<g><path style="opacity:1" fill="#d0a33d" d="M 389.5,224.5 C 392.74,239.682 393.406,255.015 391.5,270.5C 391.5,271.167 391.5,271.833 391.5,272.5C 390.833,272.833 390.167,273.167 389.5,273.5C 390.198,270.104 390.198,266.771 389.5,263.5C 390.167,261.833 390.833,260.167 391.5,258.5C 388.572,257.516 385.572,257.183 382.5,257.5C 382.62,254.795 381.62,254.128 379.5,255.5C 378.289,254.726 378.289,253.893 379.5,253C 377.695,252.028 376.028,250.861 374.5,249.5C 373.167,229.5 371.833,229.5 370.5,249.5C 369.669,242.524 369.169,235.524 369,228.5C 368.505,230.473 368.338,232.473 368.5,234.5C 367.833,232.5 367.167,230.5 366.5,228.5C 366.5,227.833 366.5,227.167 366.5,226.5C 366.167,223.167 365.833,219.833 365.5,216.5C 367.614,217.36 368.78,219.027 369,221.5C 369.483,220.552 369.649,219.552 369.5,218.5C 372.545,218.492 375.545,218.159 378.5,217.5C 378.5,216.167 378.5,214.833 378.5,213.5C 379.833,213.5 381.167,213.5 382.5,213.5C 382.34,211.801 382.506,210.134 383,208.5C 383.173,213.584 383.839,218.584 385,223.5C 386.356,224.38 387.856,224.714 389.5,224.5 Z"/></g>
<g><path style="opacity:0.973" fill="#ecd073" d="M 347.5,219.5 C 349.042,218.837 350.709,218.17 352.5,217.5C 352.291,216.914 351.957,216.414 351.5,216C 348.493,215.699 345.493,215.865 342.5,216.5C 345.292,214.942 348.292,213.609 351.5,212.5C 356.601,218.266 355.268,220.6 347.5,219.5 Z"/></g>
<g><path style="opacity:0.847" fill="#cdb382" d="M 138.5,214.5 C 138.59,217.152 137.924,219.485 136.5,221.5C 136.41,218.848 137.076,216.515 138.5,214.5 Z"/></g>
<g><path style="opacity:1" fill="#093245" d="M 161.5,242.5 C 161.5,242.833 161.5,243.167 161.5,243.5C 159.712,243.215 158.045,243.548 156.5,244.5C 157.629,246.529 157.129,246.863 155,245.5C 152.961,246.978 152.128,248.978 152.5,251.5C 151.5,251.5 150.5,251.5 149.5,251.5C 149.5,252.5 149.5,253.5 149.5,254.5C 147.61,254.297 146.11,254.963 145,256.5C 143.682,259.605 141.848,262.438 139.5,265C 137.846,265.608 136.179,266.108 134.5,266.5C 134.5,262.5 134.5,258.5 134.5,254.5C 134.248,251.68 134.748,249.014 136,246.5C 146.745,235.594 156.911,224.261 166.5,212.5C 167.5,212.167 168.167,211.5 168.5,210.5C 171.744,211.619 173.411,210.285 173.5,206.5C 178.5,207.5 180.5,205.5 179.5,200.5C 180.5,200.5 181.5,200.5 182.5,200.5C 182.231,198.571 182.731,196.905 184,195.5C 184.991,196.939 186.324,197.939 188,198.5C 188.167,199.833 188.333,201.167 188.5,202.5C 187.979,204.924 187.312,207.257 186.5,209.5C 185.448,209.351 184.448,209.517 183.5,210C 178.907,213.694 176.907,218.528 177.5,224.5C 176.448,224.351 175.448,224.517 174.5,225C 172.038,228.136 169.538,231.303 167,234.5C 166.667,233.833 166.333,233.167 166,232.5C 164.331,234.169 163.498,236.169 163.5,238.5C 162.325,238.281 161.325,238.614 160.5,239.5C 161.127,240.417 161.461,241.417 161.5,242.5 Z"/></g>
<g><path style="opacity:1" fill="#f3b521" d="M 347.5,219.5 C 344.15,219.665 340.817,219.498 337.5,219C 339.491,218.626 341.158,217.793 342.5,216.5C 345.493,215.865 348.493,215.699 351.5,216C 351.957,216.414 352.291,216.914 352.5,217.5C 350.709,218.17 349.042,218.837 347.5,219.5 Z"/></g>
<g><path style="opacity:0.69" fill="#f4e396" d="M 342.5,216.5 C 341.158,217.793 339.491,218.626 337.5,219C 340.817,219.498 344.15,219.665 347.5,219.5C 342.871,221.163 338.204,221.33 333.5,220C 336.148,217.95 339.148,216.784 342.5,216.5 Z"/></g>
<g><path style="opacity:0.373" fill="#e4d8a8" d="M 363.5,214.5 C 364.167,215.167 364.833,215.833 365.5,216.5C 365.833,219.833 366.167,223.167 366.5,226.5C 364.898,222.761 363.898,218.761 363.5,214.5 Z"/></g>
<g><path style="opacity:0.239" fill="#a6babc" d="M 207.5,219.5 C 208.609,219.557 209.609,219.89 210.5,220.5C 209.221,221.715 208.221,221.382 207.5,219.5 Z"/></g>
<g><path style="opacity:1" fill="#0f374b" d="M 267.5,220.5 C 265.711,223.292 264.377,226.292 263.5,229.5C 260.654,229.03 258.321,229.863 256.5,232C 257.938,232.219 259.271,232.719 260.5,233.5C 259.675,234.386 258.675,234.719 257.5,234.5C 257.5,236.833 257.5,239.167 257.5,241.5C 256.167,241.5 254.833,241.5 253.5,241.5C 253.215,243.288 253.548,244.955 254.5,246.5C 256.167,244.833 257.167,245.167 257.5,247.5C 256.25,250.021 256.583,252.354 258.5,254.5C 256.973,254.573 255.973,253.906 255.5,252.5C 255.027,251.094 254.027,250.427 252.5,250.5C 251.262,249.588 249.928,249.421 248.5,250C 247.295,251.376 245.962,252.542 244.5,253.5C 243.85,253.196 243.183,252.863 242.5,252.5C 240.626,254.817 238.626,256.984 236.5,259C 236.833,259.333 237.167,259.667 237.5,260C 233.882,260.129 232.215,261.962 232.5,265.5C 230.833,265.5 229.167,265.5 227.5,265.5C 227.5,267.167 227.5,268.833 227.5,270.5C 226.5,270.5 225.5,270.5 224.5,270.5C 224.5,271.5 224.5,272.5 224.5,273.5C 222.714,276.317 220.381,276.984 217.5,275.5C 212.442,275.228 209.442,277.561 208.5,282.5C 207.167,282.5 205.833,282.5 204.5,282.5C 204.5,283.833 204.5,285.167 204.5,286.5C 203.378,287.156 202.045,287.489 200.5,287.5C 193.819,286.776 187.153,285.943 180.5,285C 184.341,281.492 187.841,277.659 191,273.5C 196.167,269.667 200.667,265.167 204.5,260C 206.459,259.069 208.459,258.236 210.5,257.5C 213.102,258.654 215.768,259.154 218.5,259C 228.195,248.64 237.861,238.307 247.5,228C 251.746,224.957 256.079,224.79 260.5,227.5C 262.612,224.94 264.945,222.606 267.5,220.5 Z"/></g>
<g><path style="opacity:0.49" fill="#f5e9bb" d="M 341.5,232.5 C 339.5,232.5 337.5,232.5 335.5,232.5C 335.5,233.5 335.5,234.5 335.5,235.5C 337.099,235.232 338.432,235.566 339.5,236.5C 336.712,236.923 334.712,235.923 333.5,233.5C 334.527,231.976 336.027,231.309 338,231.5C 339.385,231.514 340.551,231.848 341.5,232.5 Z"/></g>
<g><path style="opacity:1" fill="#f1ba30" d="M 341.5,232.5 C 342.167,232.5 342.833,232.5 343.5,232.5C 347.995,233.422 352.662,234.089 357.5,234.5C 357.5,235.5 357.5,236.5 357.5,237.5C 352.527,236.836 347.527,236.503 342.5,236.5C 341.5,236.5 340.5,236.5 339.5,236.5C 338.432,235.566 337.099,235.232 335.5,235.5C 335.5,234.5 335.5,233.5 335.5,232.5C 337.5,232.5 339.5,232.5 341.5,232.5 Z"/></g>
<g><path style="opacity:0.267" fill="#f9e9a6" d="M 343.5,232.5 C 348.537,232.413 353.537,232.746 358.5,233.5C 358.5,235.167 358.5,236.833 358.5,238.5C 352.949,238.473 347.616,237.806 342.5,236.5C 347.527,236.503 352.527,236.836 357.5,237.5C 357.5,236.5 357.5,235.5 357.5,234.5C 352.662,234.089 347.995,233.422 343.5,232.5 Z"/></g>
<g><path style="opacity:1" fill="#27454f" d="M 320.5,227.5 C 322.099,229.604 323.932,231.604 326,233.5C 327.003,239.161 328.836,244.494 331.5,249.5C 330.175,248.047 329.342,248.381 329,250.5C 327.305,245.595 325.971,240.595 325,235.5C 324,235.833 323,236.167 322,236.5C 321.667,235.167 321.333,233.833 321,232.5C 320.586,232.957 320.086,233.291 319.5,233.5C 318.531,231.383 318.864,229.383 320.5,227.5 Z"/></g>
<g><path style="opacity:1" fill="#d19838" d="M 389.5,273.5 C 388.973,276.231 388.14,278.898 387,281.5C 385.022,278.279 382.522,275.612 379.5,273.5C 376.833,271.5 374.5,269.167 372.5,266.5C 371.741,264.564 370.741,262.731 369.5,261C 369.905,260.055 370.572,259.388 371.5,259C 369.777,258.477 368.444,257.477 367.5,256C 368.448,248.878 368.781,241.712 368.5,234.5C 368.338,232.473 368.505,230.473 369,228.5C 369.169,235.524 369.669,242.524 370.5,249.5C 371.833,229.5 373.167,229.5 374.5,249.5C 376.028,250.861 377.695,252.028 379.5,253C 378.289,253.893 378.289,254.726 379.5,255.5C 381.62,254.128 382.62,254.795 382.5,257.5C 385.572,257.183 388.572,257.516 391.5,258.5C 390.833,260.167 390.167,261.833 389.5,263.5C 390.198,266.771 390.198,270.104 389.5,273.5 Z"/></g>
<g><path style="opacity:0.549" fill="#86a0a6" d="M 252.5,250.5 C 254.027,250.427 255.027,251.094 255.5,252.5C 253.973,252.573 252.973,251.906 252.5,250.5 Z"/></g>
<g><path style="opacity:1" fill="#1b3e50" d="M 305.5,251.5 C 302.195,247.859 298.862,244.192 295.5,240.5C 294.221,239.285 293.221,239.618 292.5,241.5C 285.708,249.462 278.708,257.296 271.5,265C 270.451,265.492 269.451,265.326 268.5,264.5C 267.118,262.451 265.452,260.785 263.5,259.5C 266.564,259.928 269.564,260.594 272.5,261.5C 272.36,259.876 273.027,258.71 274.5,258C 272.808,256.599 272.141,254.766 272.5,252.5C 276.927,250.451 281.261,248.118 285.5,245.5C 286.429,244.311 286.762,242.978 286.5,241.5C 287.5,241.5 288.5,241.5 289.5,241.5C 289.838,239.146 290.338,236.813 291,234.5C 292.726,233.424 294.559,233.257 296.5,234C 295.5,234.833 294.5,235.667 293.5,236.5C 294.766,237.724 295.933,239.057 297,240.5C 297.561,239.978 298.228,239.645 299,239.5C 300.3,240.707 301.8,241.374 303.5,241.5C 303.328,243.492 303.995,245.158 305.5,246.5C 304.45,248.102 305.117,248.935 307.5,249C 306.619,249.708 305.953,250.542 305.5,251.5 Z"/></g>
<g><path style="opacity:0.004" fill="#c0d7db" d="M 295.5,240.5 C 294.609,241.11 293.609,241.443 292.5,241.5C 293.221,239.618 294.221,239.285 295.5,240.5 Z"/></g>
<g><path style="opacity:0.596" fill="#dac484" d="M 387.5,212.5 C 390.708,219.353 392.542,226.686 393,234.5C 393.667,243.833 393.667,253.167 393,262.5C 392.817,265.365 392.317,268.031 391.5,270.5C 393.406,255.015 392.74,239.682 389.5,224.5C 389.042,220.462 388.376,216.462 387.5,212.5 Z"/></g>
<g><path style="opacity:1" fill="#314d52" d="M 161.5,243.5 C 152.503,253.332 143.67,263.332 135,273.5C 134.503,271.19 134.337,268.857 134.5,266.5C 136.179,266.108 137.846,265.608 139.5,265C 141.848,262.438 143.682,259.605 145,256.5C 146.11,254.963 147.61,254.297 149.5,254.5C 149.5,253.5 149.5,252.5 149.5,251.5C 150.5,251.5 151.5,251.5 152.5,251.5C 152.128,248.978 152.961,246.978 155,245.5C 157.129,246.863 157.629,246.529 156.5,244.5C 158.045,243.548 159.712,243.215 161.5,243.5 Z"/></g>
<g><path style="opacity:1" fill="#d7b475" d="M 366.5,228.5 C 367.167,230.5 367.833,232.5 368.5,234.5C 368.781,241.712 368.448,248.878 367.5,256C 368.444,257.477 369.777,258.477 371.5,259C 370.572,259.388 369.905,260.055 369.5,261C 370.741,262.731 371.741,264.564 372.5,266.5C 369.653,264.486 367.32,261.986 365.5,259C 367.421,248.878 367.755,238.712 366.5,228.5 Z"/></g>
<g><path style="opacity:1" fill="#456062" d="M 244.5,253.5 C 238.812,261.188 232.146,267.854 224.5,273.5C 224.5,272.5 224.5,271.5 224.5,270.5C 225.5,270.5 226.5,270.5 227.5,270.5C 227.5,268.833 227.5,267.167 227.5,265.5C 229.167,265.5 230.833,265.5 232.5,265.5C 232.215,261.962 233.882,260.129 237.5,260C 237.167,259.667 236.833,259.333 236.5,259C 238.626,256.984 240.626,254.817 242.5,252.5C 243.183,252.863 243.85,253.196 244.5,253.5 Z"/></g>
<g><path style="opacity:1" fill="#3a565e" d="M 217.5,275.5 C 213.485,279.513 209.152,283.179 204.5,286.5C 204.5,285.167 204.5,283.833 204.5,282.5C 205.833,282.5 207.167,282.5 208.5,282.5C 209.442,277.561 212.442,275.228 217.5,275.5 Z"/></g>
<g><path style="opacity:1" fill="#d4b473" d="M 391.5,272.5 C 390.955,276.471 389.621,280.138 387.5,283.5C 384.355,280.54 381.688,277.207 379.5,273.5C 382.522,275.612 385.022,278.279 387,281.5C 388.14,278.898 388.973,276.231 389.5,273.5C 390.167,273.167 390.833,272.833 391.5,272.5 Z"/></g>
<g><path style="opacity:1" fill="#204247" d="M 363.5,277.5 C 368.663,281.83 373.33,286.664 377.5,292C 373.777,292.016 370.11,291.516 366.5,290.5C 366.101,287.837 366.101,285.337 366.5,283C 364.837,281.505 363.837,279.672 363.5,277.5 Z"/></g>
<g><path style="opacity:1" fill="#536288" d="M 181.5,288.5 C 186.71,288.608 191.71,289.275 196.5,290.5C 194.5,290.5 192.5,290.5 190.5,290.5C 189.167,290.5 187.833,290.5 186.5,290.5C 184.833,289.833 183.167,289.167 181.5,288.5 Z"/></g>
<g><path style="opacity:1" fill="#59767a" d="M 338.5,288.5 C 341.112,289.371 343.779,290.037 346.5,290.5C 345.122,291.234 343.622,291.901 342,292.5C 340.624,291.295 339.458,289.962 338.5,288.5 Z"/></g>
<g><path style="opacity:1" fill="#1b3875" d="M 190.5,290.5 C 192.5,290.5 194.5,290.5 196.5,290.5C 202.095,290.754 207.428,291.754 212.5,293.5C 207.039,293.754 201.705,293.088 196.5,291.5C 193.7,292.732 190.7,293.399 187.5,293.5C 184.833,293.333 182.167,293.167 179.5,293C 183.169,291.907 186.836,291.074 190.5,290.5 Z"/></g>
<g><path style="opacity:1" fill="#02368a" d="M 186.5,290.5 C 187.833,290.5 189.167,290.5 190.5,290.5C 186.836,291.074 183.169,291.907 179.5,293C 182.167,293.167 184.833,293.333 187.5,293.5C 190.7,293.399 193.7,292.732 196.5,291.5C 201.705,293.088 207.039,293.754 212.5,293.5C 212.833,293.5 213.167,293.5 213.5,293.5C 214.802,295.028 216.469,296.028 218.5,296.5C 224.537,298.333 230.537,300.666 236.5,303.5C 235.975,304.192 235.308,304.692 234.5,305C 235.571,305.852 236.571,306.685 237.5,307.5C 240.096,310.476 243.43,312.476 247.5,313.5C 247.842,314.338 248.508,314.672 249.5,314.5C 250.167,314.833 250.833,315.167 251.5,315.5C 251.423,316.75 250.756,317.583 249.5,318C 250.899,318.595 252.232,318.428 253.5,317.5C 254.604,318.631 254.271,319.465 252.5,320C 257.097,321.411 261.763,322.577 266.5,323.5C 265.313,323.554 263.98,323.887 262.5,324.5C 265.176,327.505 268.509,328.839 272.5,328.5C 272.33,329.822 272.663,330.989 273.5,332C 275.81,332.497 278.143,332.663 280.5,332.5C 278.16,337.65 279.826,340.483 285.5,341C 284.552,341.483 283.552,341.649 282.5,341.5C 281.833,341.5 281.167,341.5 280.5,341.5C 280.167,341.5 279.833,341.5 279.5,341.5C 279.5,340.833 279.167,340.5 278.5,340.5C 278.167,340.5 277.833,340.5 277.5,340.5C 277.5,339.833 277.167,339.5 276.5,339.5C 273.921,338.211 271.255,336.877 268.5,335.5C 267.5,336.833 266.5,336.833 265.5,335.5C 264.707,336.355 265.04,337.189 266.5,338C 264.833,338.333 263.167,338.667 261.5,339C 262.5,339.333 263.5,339.667 264.5,340C 263,340.167 261.5,340.333 260,340.5C 256.336,338.759 252.503,337.092 248.5,335.5C 248.167,335.667 247.833,335.833 247.5,336C 249.763,337.617 251.763,339.45 253.5,341.5C 252.167,341.5 250.833,341.5 249.5,341.5C 249.027,340.094 248.027,339.427 246.5,339.5C 246.027,338.094 245.027,337.427 243.5,337.5C 243.702,332.855 241.702,331.022 237.5,332C 239.645,331.257 239.811,330.424 238,329.5C 237,329.833 236,330.167 235,330.5C 233.403,329.115 231.57,328.449 229.5,328.5C 227.798,325.475 225.131,324.141 221.5,324.5C 222.677,322.968 224.011,321.468 225.5,320C 223.872,316.85 221.538,316.017 218.5,317.5C 220.113,318.427 221.779,319.261 223.5,320C 221.138,319.496 218.805,319.663 216.5,320.5C 214.471,317.977 211.971,315.977 209,314.5C 207.403,315.885 205.57,316.551 203.5,316.5C 203.953,315.542 204.619,314.708 205.5,314C 199.238,313.372 192.905,312.205 186.5,310.5C 186.167,310.5 185.833,310.5 185.5,310.5C 184.942,309.21 183.942,308.377 182.5,308C 178.311,306.369 173.978,305.536 169.5,305.5C 169.389,304.883 169.056,304.383 168.5,304C 165.529,303.206 162.529,302.539 159.5,302C 164.269,301.091 164.435,300.257 160,299.5C 157.23,300.545 154.397,301.212 151.5,301.5C 150.737,300.732 149.737,300.232 148.5,300C 157.833,299 157.833,298 148.5,297C 158.909,295.375 158.576,294.208 147.5,293.5C 160.334,290.801 173.334,289.801 186.5,290.5 Z"/></g>
<g><path style="opacity:1" fill="#2c467a" d="M 147.5,289.5 C 147.03,290.693 146.03,291.36 144.5,291.5C 141.174,292.047 137.84,292.547 134.5,293C 135.167,293.333 135.833,293.667 136.5,294C 134.623,294.576 132.789,294.409 131,293.5C 128.346,294.867 125.513,295.867 122.5,296.5C 125.785,297.324 129.118,297.824 132.5,298C 131.944,298.383 131.611,298.883 131.5,299.5C 128.167,299.167 124.833,298.833 121.5,298.5C 121.227,296.549 121.893,295.049 123.5,294C 131.372,291.792 139.372,290.292 147.5,289.5 Z"/></g>
<g><path style="opacity:1" fill="#1e3f88" d="M 181.5,288.5 C 183.167,289.167 184.833,289.833 186.5,290.5C 173.334,289.801 160.334,290.801 147.5,293.5C 158.576,294.208 158.909,295.375 148.5,297C 157.833,298 157.833,299 148.5,300C 149.737,300.232 150.737,300.732 151.5,301.5C 150.5,301.5 149.5,301.5 148.5,301.5C 142.798,301.079 137.131,300.412 131.5,299.5C 131.611,298.883 131.944,298.383 132.5,298C 129.118,297.824 125.785,297.324 122.5,296.5C 125.513,295.867 128.346,294.867 131,293.5C 132.789,294.409 134.623,294.576 136.5,294C 135.833,293.667 135.167,293.333 134.5,293C 137.84,292.547 141.174,292.047 144.5,291.5C 146.03,291.36 147.03,290.693 147.5,289.5C 158.819,288.069 170.153,287.736 181.5,288.5 Z"/></g>
<g><path style="opacity:1" fill="#41567b" d="M 213.5,293.5 C 217.427,293.926 221.093,294.926 224.5,296.5C 222.5,296.5 220.5,296.5 218.5,296.5C 216.469,296.028 214.802,295.028 213.5,293.5 Z"/></g>
<g><path style="opacity:0.929" fill="#4694b8" d="M 352.5,294.5 C 351.432,295.434 350.099,295.768 348.5,295.5C 344.19,296.08 339.857,296.414 335.5,296.5C 340.929,294.988 346.596,294.321 352.5,294.5 Z"/></g>
<g><path style="opacity:1" fill="#2979c1" d="M 348.5,295.5 C 348.5,295.833 348.5,296.167 348.5,296.5C 346.767,297.008 346.434,297.841 347.5,299C 345.913,304.563 344.08,304.729 342,299.5C 339.87,303.172 339.037,307.172 339.5,311.5C 344.592,311.497 344.592,312.33 339.5,314C 341.527,314.498 343.527,314.331 345.5,313.5C 347.972,314.992 350.639,315.658 353.5,315.5C 346.644,317.296 339.644,318.963 332.5,320.5C 333.393,317.539 335.393,315.706 338.5,315C 334.544,313.886 334.544,313.053 338.5,312.5C 338.789,308.894 338.456,305.394 337.5,302C 329.491,301.567 321.491,301.734 313.5,302.5C 320.582,299.922 327.915,297.922 335.5,296.5C 339.857,296.414 344.19,296.08 348.5,295.5 Z"/></g>
<g><path style="opacity:1" fill="#3b5896" d="M 169.5,305.5 C 162.329,304.398 155.329,303.065 148.5,301.5C 149.5,301.5 150.5,301.5 151.5,301.5C 154.397,301.212 157.23,300.545 160,299.5C 164.435,300.257 164.269,301.091 159.5,302C 162.529,302.539 165.529,303.206 168.5,304C 169.056,304.383 169.389,304.883 169.5,305.5 Z"/></g>
<g><path style="opacity:1" fill="#0279d1" d="M 348.5,296.5 C 350.124,296.36 351.29,297.027 352,298.5C 353.195,302.751 353.695,307.085 353.5,311.5C 352.325,311.281 351.325,311.614 350.5,312.5C 352.078,313.298 353.744,313.798 355.5,314C 354.944,314.383 354.611,314.883 354.5,315.5C 354.167,315.5 353.833,315.5 353.5,315.5C 350.639,315.658 347.972,314.992 345.5,313.5C 343.527,314.331 341.527,314.498 339.5,314C 344.592,312.33 344.592,311.497 339.5,311.5C 339.037,307.172 339.87,303.172 342,299.5C 344.08,304.729 345.913,304.563 347.5,299C 346.434,297.841 346.767,297.008 348.5,296.5 Z"/></g>
<g><path style="opacity:1" fill="#3f5481" d="M 229.5,297.5 C 237.319,299.042 244.986,300.709 252.5,302.5C 245.822,302.211 239.156,301.711 232.5,301C 231.635,299.641 230.635,298.474 229.5,297.5 Z"/></g>
<g><path style="opacity:1" fill="#0e96e1" d="M 374.5,297.5 C 374.281,298.675 374.614,299.675 375.5,300.5C 376.623,299.456 377.956,298.79 379.5,298.5C 383.589,299.378 387.589,300.545 391.5,302C 388.972,302.998 388.972,303.831 391.5,304.5C 393.633,303.699 395.633,303.366 397.5,303.5C 397.833,303.5 398.167,303.5 398.5,303.5C 398.577,304.75 399.244,305.583 400.5,306C 394.5,306.333 388.5,306.667 382.5,307C 381.584,307.278 380.918,307.778 380.5,308.5C 380.167,308.5 379.833,308.5 379.5,308.5C 377.143,308.337 374.81,308.503 372.5,309C 371.058,309.377 370.058,310.21 369.5,311.5C 368.609,312.11 367.609,312.443 366.5,312.5C 366.286,310.856 366.62,309.356 367.5,308C 376.833,307 376.833,306 367.5,305C 367.043,304.586 366.709,304.086 366.5,303.5C 368.772,302.515 371.105,301.681 373.5,301C 372.2,299.421 372.534,298.255 374.5,297.5 Z"/></g>
<g><path style="opacity:1" fill="#1a397f" d="M 218.5,296.5 C 220.5,296.5 222.5,296.5 224.5,296.5C 226.292,296.366 227.958,296.699 229.5,297.5C 230.635,298.474 231.635,299.641 232.5,301C 239.156,301.711 245.822,302.211 252.5,302.5C 253.167,302.5 253.833,302.5 254.5,302.5C 254.611,303.117 254.944,303.617 255.5,304C 258.482,304.498 261.482,304.665 264.5,304.5C 274.817,305.226 285.15,305.56 295.5,305.5C 299.167,305.5 302.833,305.5 306.5,305.5C 303.167,306.167 299.833,306.833 296.5,307.5C 287.477,307.284 278.477,307.617 269.5,308.5C 267.359,306.898 263.692,305.898 258.5,305.5C 257.614,306.325 257.281,307.325 257.5,308.5C 258.675,308.281 259.675,308.614 260.5,309.5C 259.833,309.833 259.167,310.167 258.5,310.5C 254.108,309.769 249.775,308.769 245.5,307.5C 243.667,307.585 242.334,308.252 241.5,309.5C 240.167,308.833 238.833,308.167 237.5,307.5C 236.571,306.685 235.571,305.852 234.5,305C 235.308,304.692 235.975,304.192 236.5,303.5C 230.537,300.666 224.537,298.333 218.5,296.5 Z"/></g>
<g><path style="opacity:1" fill="#667897" d="M 254.5,302.5 C 258.011,302.899 261.344,303.566 264.5,304.5C 261.482,304.665 258.482,304.498 255.5,304C 254.944,303.617 254.611,303.117 254.5,302.5 Z"/></g>
<g><path style="opacity:1" fill="#1d8cdb" d="M 368.5,294.5 C 370.5,295.5 372.5,296.5 374.5,297.5C 372.534,298.255 372.2,299.421 373.5,301C 371.105,301.681 368.772,302.515 366.5,303.5C 366.709,304.086 367.043,304.586 367.5,305C 376.833,306 376.833,307 367.5,308C 366.62,309.356 366.286,310.856 366.5,312.5C 362.652,314.004 358.652,315.004 354.5,315.5C 354.611,314.883 354.944,314.383 355.5,314C 353.744,313.798 352.078,313.298 350.5,312.5C 351.325,311.614 352.325,311.281 353.5,311.5C 353.695,307.085 353.195,302.751 352,298.5C 351.29,297.027 350.124,296.36 348.5,296.5C 348.5,296.167 348.5,295.833 348.5,295.5C 350.099,295.768 351.432,295.434 352.5,294.5C 357.804,293.382 363.138,293.382 368.5,294.5 Z"/></g>
<g><path style="opacity:1" fill="#41a2d9" d="M 368.5,294.5 C 378.811,295.717 388.478,298.717 397.5,303.5C 395.633,303.366 393.633,303.699 391.5,304.5C 388.972,303.831 388.972,302.998 391.5,302C 387.589,300.545 383.589,299.378 379.5,298.5C 377.956,298.79 376.623,299.456 375.5,300.5C 374.614,299.675 374.281,298.675 374.5,297.5C 372.5,296.5 370.5,295.5 368.5,294.5 Z"/></g>
<g><path style="opacity:1" fill="#1c69b6" d="M 332.5,320.5 C 325.576,321.887 318.576,322.554 311.5,322.5C 314.023,321.616 316.69,320.782 319.5,320C 318.879,317.502 319.545,315.168 321.5,313C 321.206,309.525 319.706,306.691 317,304.5C 316.612,305.428 315.945,306.095 315,306.5C 312.23,305.652 309.397,305.319 306.5,305.5C 302.833,305.5 299.167,305.5 295.5,305.5C 301.368,304.507 307.368,303.507 313.5,302.5C 321.491,301.734 329.491,301.567 337.5,302C 338.456,305.394 338.789,308.894 338.5,312.5C 334.544,313.053 334.544,313.886 338.5,315C 335.393,315.706 333.393,317.539 332.5,320.5 Z"/></g>
<g><path style="opacity:0.809" fill="#64b9d6" d="M 398.5,303.5 C 401.967,305.067 405.3,306.901 408.5,309C 408,309.5 407.5,310 407,310.5C 398.395,307.357 389.562,306.69 380.5,308.5C 380.918,307.778 381.584,307.278 382.5,307C 388.5,306.667 394.5,306.333 400.5,306C 399.244,305.583 398.577,304.75 398.5,303.5 Z"/></g>
<g><path style="opacity:1" fill="#446191" d="M 169.5,305.5 C 173.978,305.536 178.311,306.369 182.5,308C 183.942,308.377 184.942,309.21 185.5,310.5C 179.973,309.124 174.64,307.457 169.5,305.5 Z"/></g>
<g><path style="opacity:1" fill="#06398c" d="M 296.5,307.5 C 297.263,308.268 298.263,308.768 299.5,309C 298.5,309.333 297.5,309.667 296.5,310C 298.619,310.098 300.286,310.931 301.5,312.5C 299.355,314.144 297.355,315.977 295.5,318C 295.645,318.772 295.978,319.439 296.5,320C 290.509,320.499 284.509,320.666 278.5,320.5C 277.833,320.5 277.167,320.5 276.5,320.5C 276.585,319.005 275.919,318.005 274.5,317.5C 272.253,318.374 269.92,318.708 267.5,318.5C 265.485,317.076 263.152,316.41 260.5,316.5C 258.194,316.007 255.861,315.674 253.5,315.5C 252.486,314.326 251.153,313.66 249.5,313.5C 249.5,312.833 249.167,312.5 248.5,312.5C 248.167,312.5 247.833,312.5 247.5,312.5C 245.5,311.5 243.5,310.5 241.5,309.5C 242.334,308.252 243.667,307.585 245.5,307.5C 249.775,308.769 254.108,309.769 258.5,310.5C 259.167,310.167 259.833,309.833 260.5,309.5C 259.675,308.614 258.675,308.281 257.5,308.5C 257.281,307.325 257.614,306.325 258.5,305.5C 263.692,305.898 267.359,306.898 269.5,308.5C 278.477,307.617 287.477,307.284 296.5,307.5 Z"/></g>
<g><path style="opacity:1" fill="#6ab7dd" d="M 379.5,308.5 C 376.381,309.87 373.048,310.87 369.5,311.5C 370.058,310.21 371.058,309.377 372.5,309C 374.81,308.503 377.143,308.337 379.5,308.5 Z"/></g>
<g><path style="opacity:0.404" fill="#799dc4" d="M 237.5,307.5 C 238.833,308.167 240.167,308.833 241.5,309.5C 243.5,310.5 245.5,311.5 247.5,312.5C 247.5,312.833 247.5,313.167 247.5,313.5C 243.43,312.476 240.096,310.476 237.5,307.5 Z"/></g>
<g><path style="opacity:1" fill="#0f53a5" d="M 311.5,322.5 C 303.16,322.666 294.827,322.5 286.5,322C 283.635,321.817 280.969,321.317 278.5,320.5C 284.509,320.666 290.509,320.499 296.5,320C 295.978,319.439 295.645,318.772 295.5,318C 297.355,315.977 299.355,314.144 301.5,312.5C 300.286,310.931 298.619,310.098 296.5,310C 297.5,309.667 298.5,309.333 299.5,309C 298.263,308.768 297.263,308.268 296.5,307.5C 299.833,306.833 303.167,306.167 306.5,305.5C 309.397,305.319 312.23,305.652 315,306.5C 315.945,306.095 316.612,305.428 317,304.5C 319.706,306.691 321.206,309.525 321.5,313C 319.545,315.168 318.879,317.502 319.5,320C 316.69,320.782 314.023,321.616 311.5,322.5 Z"/></g>
<g><path style="opacity:0.059" fill="#aecae1" d="M 248.5,312.5 C 249.167,312.5 249.5,312.833 249.5,313.5C 249.5,313.833 249.5,314.167 249.5,314.5C 248.508,314.672 247.842,314.338 247.5,313.5C 248.167,313.5 248.5,313.167 248.5,312.5 Z"/></g>
<g><path style="opacity:1" fill="#28508d" d="M 186.5,310.5 C 192.905,312.205 199.238,313.372 205.5,314C 204.619,314.708 203.953,315.542 203.5,316.5C 197.619,314.875 191.953,312.875 186.5,310.5 Z"/></g>
<g><path style="opacity:0.906" fill="#6482b4" d="M 260.5,316.5 C 263.152,316.41 265.485,317.076 267.5,318.5C 264.848,318.59 262.515,317.924 260.5,316.5 Z"/></g>
<g><path style="opacity:1" fill="#25488e" d="M 221.5,324.5 C 215.196,322.344 209.196,319.678 203.5,316.5C 205.57,316.551 207.403,315.885 209,314.5C 211.971,315.977 214.471,317.977 216.5,320.5C 218.805,319.663 221.138,319.496 223.5,320C 221.779,319.261 220.113,318.427 218.5,317.5C 221.538,316.017 223.872,316.85 225.5,320C 224.011,321.468 222.677,322.968 221.5,324.5 Z"/></g>
<g><path style="opacity:1" fill="#385b94" d="M 276.5,320.5 C 273.273,320.324 270.273,319.657 267.5,318.5C 269.92,318.708 272.253,318.374 274.5,317.5C 275.919,318.005 276.585,319.005 276.5,320.5 Z"/></g>
<g><path style="opacity:1" fill="#5896be" d="M 376.5,324.5 C 372.119,324.628 367.785,324.295 363.5,323.5C 357.974,323.179 352.64,323.512 347.5,324.5C 344.5,324.5 341.5,324.5 338.5,324.5C 351.163,320.501 363.83,320.501 376.5,324.5 Z"/></g>
<g><path style="opacity:1" fill="#163c84" d="M 251.5,315.5 C 252.167,315.5 252.833,315.5 253.5,315.5C 260.986,319.665 268.986,322.665 277.5,324.5C 277.881,325.931 278.881,326.764 280.5,327C 284.152,327.499 287.818,327.665 291.5,327.5C 292.167,327.5 292.833,327.5 293.5,327.5C 299.645,328.49 305.978,328.823 312.5,328.5C 304.657,329.167 296.657,329.833 288.5,330.5C 293.074,332.287 297.741,333.787 302.5,335C 298.984,335.499 295.484,335.333 292,334.5C 289.085,335.266 286.252,336.266 283.5,337.5C 285.045,338.452 286.712,338.785 288.5,338.5C 288.473,340.199 287.806,341.533 286.5,342.5C 285.833,342.5 285.167,342.5 284.5,342.5C 283.833,342.5 283.167,342.5 282.5,342.5C 282.5,342.167 282.5,341.833 282.5,341.5C 283.552,341.649 284.552,341.483 285.5,341C 279.826,340.483 278.16,337.65 280.5,332.5C 278.143,332.663 275.81,332.497 273.5,332C 272.663,330.989 272.33,329.822 272.5,328.5C 268.509,328.839 265.176,327.505 262.5,324.5C 263.98,323.887 265.313,323.554 266.5,323.5C 261.763,322.577 257.097,321.411 252.5,320C 254.271,319.465 254.604,318.631 253.5,317.5C 252.232,318.428 250.899,318.595 249.5,318C 250.756,317.583 251.423,316.75 251.5,315.5 Z"/></g>
<g><path style="opacity:1" fill="#395591" d="M 221.5,324.5 C 225.131,324.141 227.798,325.475 229.5,328.5C 226.515,327.674 223.849,326.341 221.5,324.5 Z"/></g>
<g><path style="opacity:1" fill="#51678b" d="M 277.5,324.5 C 282.289,325.509 286.956,326.509 291.5,327.5C 287.818,327.665 284.152,327.499 280.5,327C 278.881,326.764 277.881,325.931 277.5,324.5 Z"/></g>
<g><path style="opacity:1" fill="#0382d6" d="M 347.5,324.5 C 352.64,323.512 357.974,323.179 363.5,323.5C 363.047,324.458 362.381,325.292 361.5,326C 363.134,326.494 364.801,326.66 366.5,326.5C 366.351,327.552 366.517,328.552 367,329.5C 368.011,328.663 369.178,328.33 370.5,328.5C 371.077,331.55 369.91,333.55 367,334.5C 366.517,335.448 366.351,336.448 366.5,337.5C 361.824,338.742 357.157,340.075 352.5,341.5C 351.584,341.457 350.917,341.124 350.5,340.5C 349.344,336.493 349.177,332.493 350,328.5C 348.601,327.773 347.101,327.273 345.5,327C 347.715,326.83 349.715,326.163 351.5,325C 350.207,324.51 348.873,324.343 347.5,324.5 Z"/></g>
<g><path style="opacity:1" fill="#3176c2" d="M 338.5,324.5 C 341.5,324.5 344.5,324.5 347.5,324.5C 348.873,324.343 350.207,324.51 351.5,325C 349.715,326.163 347.715,326.83 345.5,327C 347.101,327.273 348.601,327.773 350,328.5C 349.177,332.493 349.344,336.493 350.5,340.5C 348.856,340.81 347.856,341.81 347.5,343.5C 342.684,342.993 338.35,343.993 334.5,346.5C 324.384,348.988 314.384,348.988 304.5,346.5C 310.5,346.5 316.5,346.5 322.5,346.5C 336.408,347.135 341.408,340.802 337.5,327.5C 334.628,326.217 331.795,326.217 329,327.5C 328.471,329.585 328.971,331.418 330.5,333C 329.991,334.169 329.158,335.002 328,335.5C 326.809,332.466 324.642,330.799 321.5,330.5C 320.833,330.5 320.5,330.833 320.5,331.5C 317.813,331.664 315.146,331.497 312.5,331C 321.811,329.845 321.811,329.012 312.5,328.5C 305.978,328.823 299.645,328.49 293.5,327.5C 308.627,328.091 323.627,327.091 338.5,324.5 Z"/></g>
<g><path style="opacity:1" fill="#445883" d="M 182.5,334.5 C 181.504,334.414 180.671,334.748 180,335.5C 173.522,332.338 166.689,330.338 159.5,329.5C 159.5,330.5 159.5,331.5 159.5,332.5C 157.661,331.492 156.328,329.992 155.5,328C 165.057,328.14 174.057,330.306 182.5,334.5 Z"/></g>
<g><path style="opacity:1" fill="#2496dd" d="M 363.5,323.5 C 367.785,324.295 372.119,324.628 376.5,324.5C 378.786,324.595 380.786,325.262 382.5,326.5C 382.389,327.117 382.056,327.617 381.5,328C 384.923,327.855 386.923,329.355 387.5,332.5C 381.835,333.25 376.168,334.083 370.5,335C 371.252,335.671 371.586,336.504 371.5,337.5C 363.669,340.124 355.669,342.124 347.5,343.5C 347.856,341.81 348.856,340.81 350.5,340.5C 350.917,341.124 351.584,341.457 352.5,341.5C 357.157,340.075 361.824,338.742 366.5,337.5C 366.351,336.448 366.517,335.448 367,334.5C 369.91,333.55 371.077,331.55 370.5,328.5C 369.178,328.33 368.011,328.663 367,329.5C 366.517,328.552 366.351,327.552 366.5,326.5C 364.801,326.66 363.134,326.494 361.5,326C 362.381,325.292 363.047,324.458 363.5,323.5 Z"/></g>
<g><path style="opacity:1" fill="#035daf" d="M 322.5,346.5 C 322.611,345.883 322.944,345.383 323.5,345C 321.5,344.667 319.5,344.333 317.5,344C 318.785,340.414 320.452,336.581 322.5,332.5C 322.137,331.817 321.804,331.15 321.5,330.5C 324.642,330.799 326.809,332.466 328,335.5C 329.158,335.002 329.991,334.169 330.5,333C 328.971,331.418 328.471,329.585 329,327.5C 331.795,326.217 334.628,326.217 337.5,327.5C 341.408,340.802 336.408,347.135 322.5,346.5 Z"/></g>
<g><path style="opacity:1" fill="#304c91" d="M 229.5,328.5 C 231.57,328.449 233.403,329.115 235,330.5C 236,330.167 237,329.833 238,329.5C 239.811,330.424 239.645,331.257 237.5,332C 241.702,331.022 243.702,332.855 243.5,337.5C 238.825,334.497 234.159,331.497 229.5,328.5 Z"/></g>
<g><path style="opacity:1" fill="#57b8df" d="M 382.5,326.5 C 388.436,328.302 393.103,331.802 396.5,337C 393.065,335.644 389.398,334.811 385.5,334.5C 380.683,334.871 376.016,335.871 371.5,337.5C 371.586,336.504 371.252,335.671 370.5,335C 376.168,334.083 381.835,333.25 387.5,332.5C 386.923,329.355 384.923,327.855 381.5,328C 382.056,327.617 382.389,327.117 382.5,326.5 Z"/></g>
<g><path style="opacity:1" fill="#0e3a87" d="M 276.5,339.5 C 274.335,340.062 274.668,340.729 277.5,341.5C 278.167,341.5 278.5,341.167 278.5,340.5C 279.167,340.5 279.5,340.833 279.5,341.5C 279.5,342.167 279.833,342.5 280.5,342.5C 280.5,343.167 280.833,343.5 281.5,343.5C 282.492,343.328 283.158,343.662 283.5,344.5C 283.414,345.496 283.748,346.329 284.5,347C 289.807,348.5 295.141,349.666 300.5,350.5C 303.237,350.401 305.904,350.735 308.5,351.5C 311.865,353.039 315.531,353.706 319.5,353.5C 324.18,353.249 328.846,352.916 333.5,352.5C 336.421,352.146 338.754,353.146 340.5,355.5C 338.713,355.943 337.046,356.276 335.5,356.5C 326.448,354.331 317.281,353.998 308,355.5C 302.764,353.516 297.431,353.849 292,356.5C 288.688,355.024 285.188,354.19 281.5,354C 279.548,351.263 277.048,349.096 274,347.5C 273.085,348.328 272.419,349.328 272,350.5C 270.89,348.963 269.39,348.297 267.5,348.5C 266.91,344.08 264.91,343.414 261.5,346.5C 260.169,349.049 261.002,350.716 264,351.5C 265.049,350.483 266.216,350.316 267.5,351C 266.549,351.718 266.383,352.551 267,353.5C 269.104,353.292 271.27,353.292 273.5,353.5C 270.942,354.218 270.275,355.551 271.5,357.5C 270.833,357.5 270.167,357.5 269.5,357.5C 265.854,355.183 262.52,352.516 259.5,349.5C 258.799,347.092 257.799,344.758 256.5,342.5C 255.583,341.873 254.583,341.539 253.5,341.5C 251.763,339.45 249.763,337.617 247.5,336C 247.833,335.833 248.167,335.667 248.5,335.5C 252.503,337.092 256.336,338.759 260,340.5C 261.5,340.333 263,340.167 264.5,340C 263.5,339.667 262.5,339.333 261.5,339C 263.167,338.667 264.833,338.333 266.5,338C 265.04,337.189 264.707,336.355 265.5,335.5C 266.5,336.833 267.5,336.833 268.5,335.5C 271.255,336.877 273.921,338.211 276.5,339.5 Z"/></g>
<g><path style="opacity:1" fill="#023d92" d="M 312.5,328.5 C 321.811,329.012 321.811,329.845 312.5,331C 315.146,331.497 317.813,331.664 320.5,331.5C 318.342,333.22 315.675,334.053 312.5,334C 312.167,334.333 311.833,334.667 311.5,335C 312.308,335.308 312.975,335.808 313.5,336.5C 311.803,337.364 310.637,338.697 310,340.5C 308.16,340.512 306.327,341.346 304.5,343C 298.496,343.3 292.496,343.134 286.5,342.5C 287.806,341.533 288.473,340.199 288.5,338.5C 286.712,338.785 285.045,338.452 283.5,337.5C 286.252,336.266 289.085,335.266 292,334.5C 295.484,335.333 298.984,335.499 302.5,335C 297.741,333.787 293.074,332.287 288.5,330.5C 296.657,329.833 304.657,329.167 312.5,328.5 Z"/></g>
<g><path style="opacity:1" fill="#114c9b" d="M 321.5,330.5 C 321.804,331.15 322.137,331.817 322.5,332.5C 320.452,336.581 318.785,340.414 317.5,344C 319.5,344.333 321.5,344.667 323.5,345C 322.944,345.383 322.611,345.883 322.5,346.5C 316.5,346.5 310.5,346.5 304.5,346.5C 304.167,346.5 303.833,346.5 303.5,346.5C 301.095,345.232 298.428,344.565 295.5,344.5C 291.613,344.354 287.946,343.687 284.5,342.5C 285.167,342.5 285.833,342.5 286.5,342.5C 292.496,343.134 298.496,343.3 304.5,343C 306.327,341.346 308.16,340.512 310,340.5C 310.637,338.697 311.803,337.364 313.5,336.5C 312.975,335.808 312.308,335.308 311.5,335C 311.833,334.667 312.167,334.333 312.5,334C 315.675,334.053 318.342,333.22 320.5,331.5C 320.5,330.833 320.833,330.5 321.5,330.5 Z"/></g>
<g><path style="opacity:1" fill="#0a3787" d="M 182.5,334.5 C 188.36,335.766 193.693,338.1 198.5,341.5C 198.5,342.833 198.5,344.167 198.5,345.5C 199.822,345.67 200.989,345.337 202,344.5C 205.757,346.445 209.591,348.112 213.5,349.5C 214.048,351.394 215.048,353.06 216.5,354.5C 207.564,355.829 207.897,357.329 217.5,359C 220.109,361.644 223.109,363.811 226.5,365.5C 227.548,364.617 228.715,363.95 230,363.5C 231.738,365.74 233.905,367.407 236.5,368.5C 238.631,369.659 239.964,371.492 240.5,374C 239.833,374.333 239.167,374.667 238.5,375C 246.863,375.749 247.197,376.749 239.5,378C 242.014,379.252 244.68,379.752 247.5,379.5C 248.376,379.369 249.043,379.702 249.5,380.5C 246.914,381.48 244.247,381.813 241.5,381.5C 239.901,381.768 238.568,381.434 237.5,380.5C 235.485,379.076 233.152,378.41 230.5,378.5C 230.167,378.5 229.833,378.5 229.5,378.5C 229.423,377.25 228.756,376.417 227.5,376C 224.883,375.178 222.216,374.678 219.5,374.5C 211.849,371.341 204.516,367.675 197.5,363.5C 197.577,362.25 198.244,361.417 199.5,361C 197.51,359.249 195.177,358.249 192.5,358C 193.5,357.667 194.5,357.333 195.5,357C 192.346,355.919 189.679,354.086 187.5,351.5C 188.471,350.038 188.138,348.705 186.5,347.5C 183.474,346.933 180.641,345.933 178,344.5C 176.923,345.429 175.756,346.096 174.5,346.5C 168.871,342.539 163.871,337.873 159.5,332.5C 159.5,331.5 159.5,330.5 159.5,329.5C 166.689,330.338 173.522,332.338 180,335.5C 180.671,334.748 181.504,334.414 182.5,334.5 Z"/></g>
<g><path style="opacity:0.62" fill="#6882a2" d="M 243.5,337.5 C 245.027,337.427 246.027,338.094 246.5,339.5C 244.973,339.573 243.973,338.906 243.5,337.5 Z"/></g>
<g><path style="opacity:0.867" fill="#5f769a" d="M 246.5,339.5 C 248.027,339.427 249.027,340.094 249.5,341.5C 247.973,341.573 246.973,340.906 246.5,339.5 Z"/></g>
<g><path style="opacity:0.145" fill="#93b7cc" d="M 276.5,339.5 C 277.167,339.5 277.5,339.833 277.5,340.5C 277.5,340.833 277.5,341.167 277.5,341.5C 274.668,340.729 274.335,340.062 276.5,339.5 Z"/></g>
<g><path style="opacity:1" fill="#345092" d="M 249.5,341.5 C 250.833,341.5 252.167,341.5 253.5,341.5C 254.583,341.539 255.583,341.873 256.5,342.5C 257.799,344.758 258.799,347.092 259.5,349.5C 256.127,346.822 252.794,344.156 249.5,341.5 Z"/></g>
<g><path style="opacity:0.184" fill="#a7c4d5" d="M 280.5,341.5 C 281.167,341.5 281.833,341.5 282.5,341.5C 282.5,341.833 282.5,342.167 282.5,342.5C 281.833,342.5 281.5,342.833 281.5,343.5C 280.833,343.5 280.5,343.167 280.5,342.5C 280.5,342.167 280.5,341.833 280.5,341.5 Z"/></g>
<g><path style="opacity:1" fill="#4b5988" d="M 198.5,341.5 C 203.987,343.337 208.987,346.003 213.5,349.5C 209.591,348.112 205.757,346.445 202,344.5C 200.989,345.337 199.822,345.67 198.5,345.5C 198.5,344.167 198.5,342.833 198.5,341.5 Z"/></g>
<g><path style="opacity:1" fill="#5e96c5" d="M 347.5,343.5 C 343.385,344.943 339.052,345.943 334.5,346.5C 338.35,343.993 342.684,342.993 347.5,343.5 Z"/></g>
<g><path style="opacity:0.91" fill="#6b91ba" d="M 295.5,344.5 C 298.428,344.565 301.095,345.232 303.5,346.5C 300.505,346.706 297.838,346.04 295.5,344.5 Z"/></g>
<g><path style="opacity:1" fill="#18438d" d="M 197.5,363.5 C 188.965,358.959 181.298,353.292 174.5,346.5C 175.756,346.096 176.923,345.429 178,344.5C 180.641,345.933 183.474,346.933 186.5,347.5C 188.138,348.705 188.471,350.038 187.5,351.5C 189.679,354.086 192.346,355.919 195.5,357C 194.5,357.333 193.5,357.667 192.5,358C 195.177,358.249 197.51,359.249 199.5,361C 198.244,361.417 197.577,362.25 197.5,363.5 Z"/></g>
<g><path style="opacity:1" fill="#375180" d="M 283.5,344.5 C 289.252,346.527 294.919,348.527 300.5,350.5C 295.141,349.666 289.807,348.5 284.5,347C 283.748,346.329 283.414,345.496 283.5,344.5 Z"/></g>
<g><path style="opacity:1" fill="#06388b" d="M 335.5,356.5 C 333.782,357.224 331.948,357.891 330,358.5C 330.499,359.894 331.333,361.228 332.5,362.5C 330.09,361.611 327.59,360.945 325,360.5C 322.076,362.209 318.909,363.209 315.5,363.5C 315.5,364.5 315.5,365.5 315.5,366.5C 311.481,367.147 307.481,367.48 303.5,367.5C 306.049,368.284 308.382,369.451 310.5,371C 308.407,372.927 306.407,372.76 304.5,370.5C 303.756,371.991 303.09,373.491 302.5,375C 299.77,375.728 297.103,375.562 294.5,374.5C 293.571,375.689 293.238,377.022 293.5,378.5C 292.5,378.5 291.5,378.5 290.5,378.5C 285.5,372.833 280.167,367.5 274.5,362.5C 274.25,360.326 273.25,358.659 271.5,357.5C 270.275,355.551 270.942,354.218 273.5,353.5C 271.27,353.292 269.104,353.292 267,353.5C 266.383,352.551 266.549,351.718 267.5,351C 266.216,350.316 265.049,350.483 264,351.5C 261.002,350.716 260.169,349.049 261.5,346.5C 264.91,343.414 266.91,344.08 267.5,348.5C 269.39,348.297 270.89,348.963 272,350.5C 272.419,349.328 273.085,348.328 274,347.5C 277.048,349.096 279.548,351.263 281.5,354C 285.188,354.19 288.688,355.024 292,356.5C 297.431,353.849 302.764,353.516 308,355.5C 317.281,353.998 326.448,354.331 335.5,356.5 Z"/></g>
<g><path style="opacity:0.941" fill="#557f98" d="M 349.5,350.5 C 348.432,349.566 347.099,349.232 345.5,349.5C 348.291,348.281 351.124,346.948 354,345.5C 353.848,348.163 352.348,349.83 349.5,350.5 Z"/></g>
<g><path style="opacity:0.898" fill="#526b8a" d="M 308.5,351.5 C 316.84,352.687 325.173,352.687 333.5,351.5C 333.5,351.833 333.5,352.167 333.5,352.5C 328.846,352.916 324.18,353.249 319.5,353.5C 315.531,353.706 311.865,353.039 308.5,351.5 Z"/></g>
<g><path style="opacity:1" fill="#244e8f" d="M 345.5,349.5 C 347.099,349.232 348.432,349.566 349.5,350.5C 344.393,355.27 338.727,359.27 332.5,362.5C 331.333,361.228 330.499,359.894 330,358.5C 331.948,357.891 333.782,357.224 335.5,356.5C 337.046,356.276 338.713,355.943 340.5,355.5C 338.754,353.146 336.421,352.146 333.5,352.5C 333.5,352.167 333.5,351.833 333.5,351.5C 337.524,350.962 341.524,350.295 345.5,349.5 Z"/></g>
<g><path style="opacity:1" fill="#16387c" d="M 213.5,349.5 C 220.487,353.664 227.154,358.331 233.5,363.5C 234.241,365.354 235.241,367.021 236.5,368.5C 233.905,367.407 231.738,365.74 230,363.5C 228.715,363.95 227.548,364.617 226.5,365.5C 223.109,363.811 220.109,361.644 217.5,359C 207.897,357.329 207.564,355.829 216.5,354.5C 215.048,353.06 214.048,351.394 213.5,349.5 Z"/></g>
<g><path style="opacity:1" fill="#546d98" d="M 269.5,357.5 C 270.167,357.5 270.833,357.5 271.5,357.5C 273.25,358.659 274.25,360.326 274.5,362.5C 272.5,361.167 270.833,359.5 269.5,357.5 Z"/></g>
<g><path style="opacity:1" fill="#234488" d="M 332.5,362.5 C 320.26,370.595 306.926,376.595 292.5,380.5C 291.478,380.145 290.811,379.478 290.5,378.5C 291.5,378.5 292.5,378.5 293.5,378.5C 293.238,377.022 293.571,375.689 294.5,374.5C 297.103,375.562 299.77,375.728 302.5,375C 303.09,373.491 303.756,371.991 304.5,370.5C 306.407,372.76 308.407,372.927 310.5,371C 308.382,369.451 306.049,368.284 303.5,367.5C 307.481,367.48 311.481,367.147 315.5,366.5C 315.5,365.5 315.5,364.5 315.5,363.5C 318.909,363.209 322.076,362.209 325,360.5C 327.59,360.945 330.09,361.611 332.5,362.5 Z"/></g>
<g><path style="opacity:1" fill="#355b90" d="M 219.5,374.5 C 222.216,374.678 224.883,375.178 227.5,376C 228.756,376.417 229.423,377.25 229.5,378.5C 225.851,377.733 222.518,376.4 219.5,374.5 Z"/></g>
<g><path style="opacity:1" fill="#24477f" d="M 233.5,363.5 C 238.127,366.791 242.46,370.458 246.5,374.5C 246.366,376.292 246.699,377.958 247.5,379.5C 244.68,379.752 242.014,379.252 239.5,378C 247.197,376.749 246.863,375.749 238.5,375C 239.167,374.667 239.833,374.333 240.5,374C 239.964,371.492 238.631,369.659 236.5,368.5C 235.241,367.021 234.241,365.354 233.5,363.5 Z"/></g>
<g><path style="opacity:0.906" fill="#56759a" d="M 230.5,378.5 C 233.152,378.41 235.485,379.076 237.5,380.5C 234.848,380.59 232.515,379.924 230.5,378.5 Z"/></g>
<g><path style="opacity:1" fill="#486989" d="M 246.5,374.5 C 248.767,377.271 251.267,379.938 254,382.5C 254.667,383.167 254.667,383.833 254,384.5C 249.727,383.544 245.56,382.544 241.5,381.5C 244.247,381.813 246.914,381.48 249.5,380.5C 249.043,379.702 248.376,379.369 247.5,379.5C 246.699,377.958 246.366,376.292 246.5,374.5 Z"/></g>
</svg>
